<svg xmlns="http://www.w3.org/2000/svg" viewBox="0 0 36 32">
  <ellipse cx="18" cy="22" rx="18" ry="10" fill="#8899a6"/>
  <ellipse cx="18" cy="20.25" rx="18" ry="10" fill="#ccd6dd"/>
  <path d="M32.675 19.685c0 4.26-6.57 7.712-14.675 7.712S3.325 23.945 3.325 19.685c0-4.258 6.57-7.711 14.675-7.711 8.104 0 14.675 3.453 14.675 7.711" fill="#dd2e44"/>
  <path d="M32.233 18.543c0 9.854-28.466 9.854-28.466 0V9.784h28.466z" fill="#f4abba"/>
  <path d="M17.984 14.166c-8.984 0-14.218-4.132-14.218-4.132s-.016.924-.016 1.685c0 0 .032 4.898 2.572 4.898 2.459 0 2.28 2.348 3.834 2.591 1.541.241 1.712-.938 3.625-.938s2.25 2.106 4.203 2.106c2.289 0 2.477-2.106 4.389-2.106s2.132 1.224 3.386.885c1.507-.408.814-2.537 3.887-2.537 2.54 0 2.603-4.648 2.603-4.648 0-.76-.017-1.935-.017-1.935s-5.263 4.131-14.248 4.131" fill="#dd2e44"/>
  <path d="M32.675 8.737c0 4.259-6.57 7.712-14.675 7.712S3.325 12.996 3.325 8.737 9.895 1.025 18 1.025c8.104 0 14.675 3.453 14.675 7.712" fill="#ea596e"/>
</svg>
